# xmcd
#
# Track frame offsets: 
#        150
#        10737
#        21512
#        35502
#        50746
#        66652
#        81116
#        93049
#        105066
#        116409
#
# Disc length: 1714 seconds
#
# Revision: 0
# Processed by: cddbd v1.5.2PL0 Copyright (c) Steve Scherf et al.
# Submitted via: ExactAudioCopy v1.3
#
DISCID=7606b00a
DTITLE=Tammy Wynette - Just Tammy
DYEAR=1978
DGENRE=Country
TTITLE0=They Call it Making Love
TTITLE1=We'll Talk About it Later
TTITLE2=Somewhere
TTITLE3=Mama, Your Little Girl Fell
TTITLE4=I'm Not Ready Yet
TTITLE5=No One Else in The World
TTITLE6=You Don't Know The Half of it
TTITLE7=I L-O-V-E  Y-O-U
TTITLE8=You Never Cross My Mind
TTITLE9=Let Me Be Me
EXTD=
EXTT0=
EXTT1=
EXTT2=
EXTT3=
EXTT4=
EXTT5=
EXTT6=
EXTT7=
EXTT8=
EXTT9=
PLAYORDER=
